<svg xmlns="http://www.w3.org/2000/svg" viewBox="0 0 64 64">
  <defs>
    <linearGradient id="zg" x1="18" y1="48" x2="46" y2="18" gradientUnits="userSpaceOnUse">
      <stop offset="0" stop-color="#d699b6"/>
      <stop offset="1" stop-color="#7fbbb3"/>
    </linearGradient>
    <filter id="glow" x="-60%" y="-60%" width="220%" height="220%">
      <feDropShadow dx="0" dy="0" stdDeviation="1.8" flood-color="#d699b6" flood-opacity="0.55"/>
    </filter>
  </defs>
  <g filter="url(#glow)" transform="translate(32 32) scale(0.78) translate(-31 -29)">
    <g stroke="url(#zg)" stroke-linecap="round" opacity="0.42">
      <line x1="9" y1="41" x2="19" y2="30" stroke-width="2"/>
      <line x1="17" y1="51" x2="25" y2="42" stroke-width="2"/>
    </g>
    <line x1="14" y1="50" x2="46" y2="18" stroke="url(#zg)" stroke-width="8" stroke-linecap="round" opacity="0.42"/>
    <line x1="14" y1="50" x2="46" y2="18" stroke="#f2e9d4" stroke-width="2.6" stroke-linecap="round"/>
    <path d="M49 3 C49.63 7.8 49.63 7.8 61 9 C49.63 10.2 49.63 10.2 49 15 C48.37 10.2 48.37 10.2 37 9 C48.37 7.8 48.37 7.8 49 3Z" fill="url(#zg)"/>
    <path d="M49 9.8 C49.36 11.9 49.36 11.9 54.2 9 C49.36 6.1 49.36 6.1 49 4 C48.64 6.1 48.64 6.1 49 9.8Z" fill="#fbf6ea"/>
    <path d="M31 29.6 C31.29 32.4 31.29 32.4 34.4 33 C31.29 33.6 31.29 33.6 31 36.4 C30.71 33.6 30.71 33.6 27.6 33 C30.71 32.4 30.71 32.4 31 29.6Z" fill="#f2e9d4"/>
  </g>
</svg>
